<?xml version="1.0" encoding="utf-8"?>
<!-- Generator: Adobe Illustrator 15.0.0, SVG Export Plug-In . SVG Version: 6.00 Build 0)  -->
<!DOCTYPE svg PUBLIC "-//W3C//DTD SVG 1.1//EN" "http://www.w3.org/Graphics/SVG/1.1/DTD/svg11.dtd">
<svg version="1.1" xmlns="http://www.w3.org/2000/svg" xmlns:xlink="http://www.w3.org/1999/xlink" x="0px" y="0px" width="400px"
	 height="400px" viewBox="0 0 400 400" enable-background="new 0 0 400 400" xml:space="preserve">
<g id="Layer_1">
	<polygon fill="#388259" points="102.204,367.263 2,193.705 102.204,20.147 302.611,20.147 402.814,193.705 302.611,367.263 	"/>
	<g>
		<g>
			<g enable-background="new    ">
				<g>
					<polygon fill="#4E3E2F" points="321.469,276.529 300.396,265.916 269.478,205.701 290.549,216.314 					"/>
				</g>
				<g>
					<polygon fill="#5D4A38" points="321.777,121.495 300.705,110.881 322.563,110.881 343.635,121.495 					"/>
				</g>
				<g>
					<polygon fill="#4E3E2F" points="291.001,178.486 269.941,167.874 300.705,110.881 321.777,121.495 					"/>
				</g>
				<g>
					<polygon fill="#4E3E2F" points="236.252,276.529 215.19,265.916 259.465,186.817 280.524,197.427 					"/>
				</g>
				<g>
					<polygon fill="#5D4A38" points="239.748,121.495 218.688,110.881 240.532,110.881 261.605,121.495 					"/>
				</g>
				<g>
					<polygon fill="#4E3E2F" points="280.524,197.427 259.465,186.817 218.688,110.881 239.748,121.495 					"/>
				</g>
				<g>
					<polygon fill="#896E52" points="300.919,197.32 343.374,276.529 321.469,276.529 290.549,216.314 258.108,276.529 
						236.252,276.529 280.524,197.427 239.748,121.495 261.605,121.495 291.001,178.486 321.777,121.495 343.635,121.495 					"/>
				</g>
			</g>
		</g>
		<g>
			<g enable-background="new    ">
				<g>
					<polygon fill="#4E3E2F" points="181.272,276.529 160.207,265.916 161.83,159.083 182.896,169.695 					"/>
				</g>
				<g>
					<polygon fill="#4E3E2F" points="142.03,223.848 120.962,213.236 163.319,110.881 184.383,121.495 					"/>
				</g>
				<g>
					<polygon fill="#5D4A38" points="184.383,121.495 163.319,110.881 181.559,110.881 202.624,121.495 					"/>
				</g>
				<g>
					<polygon fill="#4E3E2F" points="134.811,254.963 113.745,244.352 81.768,161.157 102.833,171.771 					"/>
				</g>
				<g>
					<polygon fill="#5D4A38" points="84.6,121.495 63.535,110.881 81.776,110.881 102.841,121.495 					"/>
				</g>
				<g>
					<polygon fill="#4E3E2F" points="82.246,276.529 61.18,265.916 63.535,110.881 84.6,121.495 					"/>
				</g>
				<g>
					<polygon fill="#896E52" points="202.624,121.495 200.267,276.529 181.272,276.529 182.896,169.695 148.359,254.963 
						134.811,254.963 102.833,171.771 101.241,276.529 82.246,276.529 84.6,121.495 102.841,121.495 142.03,223.848 
						184.383,121.495 					"/>
				</g>
			</g>
		</g>
		<polygon opacity="0.4" fill="#FFFFFF" points="63.011,145.308 66.579,151.394 72.891,149.872 79.137,157.102 84.059,157.102 
			88.65,156.151 95.309,152.536 102.841,157.102 112.433,156.151 114.851,152.866 102.841,121.495 81.776,110.881 63.535,110.881 		
			"/>
		<polygon opacity="0.4" fill="#FFFFFF" points="202.182,150.636 193.679,146.637 185.497,152.536 176.174,151.394 173.126,148.698 
			168.943,142.261 163.319,142.261 159.43,137.124 151.693,138.973 163.319,110.881 181.559,110.881 202.624,121.495 		"/>
		<polygon opacity="0.4" fill="#FFFFFF" points="280.965,159.025 273.396,155.104 271.969,159.671 266.165,155.104 261.605,159.671 
			259.185,157.685 252.085,153.106 247.858,154.153 243.713,148.445 239.783,150.172 218.688,110.881 240.532,110.881 
			261.605,121.495 		"/>
		<polygon opacity="0.4" fill="#FFFFFF" points="321.683,160.465 318.395,154.724 314.97,157.102 305.836,158.719 303.512,155.321 
			300.705,148.064 295.467,148.064 294.229,143.688 288.047,142.832 286.53,137.136 300.705,110.881 322.563,110.881 
			343.635,121.495 		"/>
	</g>
</g>
<g id="letters">
</g>
</svg>
