<?xml version="1.0" encoding="UTF-8" standalone="no"?>
<!-- Created with Inkscape (http://www.inkscape.org/) -->

<svg
   xmlns:dc="http://purl.org/dc/elements/1.1/"
   xmlns:cc="http://creativecommons.org/ns#"
   xmlns:rdf="http://www.w3.org/1999/02/22-rdf-syntax-ns#"
   xmlns:svg="http://www.w3.org/2000/svg"
   xmlns="http://www.w3.org/2000/svg"
   xmlns:sodipodi="http://sodipodi.sourceforge.net/DTD/sodipodi-0.dtd"
   xmlns:inkscape="http://www.inkscape.org/namespaces/inkscape"
   width="200mm"
   height="200mm"
   viewBox="0 0 200 200"
   version="1.1"
   id="svg8"
   inkscape:version="0.92.3 (2405546, 2018-03-11)"
   sodipodi:docname="hand.svg">
  <defs
     id="defs2" />
  <sodipodi:namedview
     id="base"
     pagecolor="#ffffff"
     bordercolor="#666666"
     borderopacity="1.0"
     inkscape:pageopacity="0.0"
     inkscape:pageshadow="2"
     inkscape:zoom="0.7"
     inkscape:cx="122.663"
     inkscape:cy="353.37998"
     inkscape:document-units="mm"
     inkscape:current-layer="layer1"
     showgrid="false"
     inkscape:snap-page="true"
     inkscape:window-width="1853"
     inkscape:window-height="1025"
     inkscape:window-x="67"
     inkscape:window-y="27"
     inkscape:window-maximized="1"
     inkscape:snap-object-midpoints="true" />
  <metadata
     id="metadata5">
    <rdf:RDF>
      <cc:Work
         rdf:about="">
        <dc:format>image/svg+xml</dc:format>
        <dc:type
           rdf:resource="http://purl.org/dc/dcmitype/StillImage" />
        <dc:title></dc:title>
      </cc:Work>
    </rdf:RDF>
  </metadata>
  <g
     inkscape:label="Layer 1"
     inkscape:groupmode="layer"
     id="layer1"
     transform="translate(0,-97)">
    <path
       style="opacity:1;fill:#000000;fill-opacity:1;stroke:none;stroke-width:2.5;stroke-linecap:round;stroke-linejoin:round;stroke-miterlimit:4;stroke-dasharray:7.50000011, 7.50000011000000022;stroke-dashoffset:0;stroke-opacity:1;paint-order:stroke fill markers"
       id="path3234"
       d="m 61.910523,269.87427 c -2.471558,-2.26391 -4.927648,-4.54284 -7.432733,-6.77027 -2.698811,-2.30428 -5.399209,-4.6092 -8.237816,-6.74186 -0.761677,-0.57226 -3.849216,-2.78177 -4.615669,-3.33186 -3.064745,-2.19612 -6.192083,-4.31472 -9.149006,-6.65755 -1.68021,-1.33126 -2.453693,-2.03759 -4.058531,-3.43613 -3.243984,-2.9826 -6.389131,-6.07123 -9.332162,-9.3519 -1.421437,-1.58633 -2.7723,-3.26745 -3.861768,-5.10413 -0.57501,-0.96939 -0.747815,-1.416 -1.211077,-2.42835 -0.87353,-2.19812 -1.441055,-4.50481 -2.040901,-6.78926 -0.486327,-1.65707 -0.906794,-3.33273 -1.401349,-4.98731 -0.30564,-0.93591 -0.484427,-1.89922 -0.563929,-2.87839 -0.1247591,-1.15224 0.519803,-2.09538 1.168442,-2.98022 1.483973,-1.82948 3.4246,-3.20139 5.334516,-4.5474 3.218062,-2.02302 6.461514,-4.06991 9.998564,-5.48989 1.197028,-0.48056 1.724649,-0.63853 2.947045,-1.04971 2.604926,-0.86239 5.327084,-1.14962 8.050768,-1.30068 2.075514,-0.0755 4.099079,0.18811 6.061549,0.85599 1.389181,0.63846 2.655781,1.54545 3.809624,2.54395 0.850487,0.86983 1.714302,1.7187 2.616565,2.53544 1.222587,0.98581 2.487578,1.91713 3.758621,2.83963 1.576554,1.14396 3.000237,2.47737 4.367577,3.85973 0.894826,0.92082 1.628278,1.97042 2.371992,3.01114 1.387026,1.99109 -2.608193,2.18068 -4.843494,3.18359 -0.06888,0.0309 -1.040458,-1.00321 -1.114935,-1.08231 -1.108708,-1.38771 -2.022081,-2.9138 -3.032721,-4.37108 -1.834406,-2.49894 -4.148632,-4.60222 -6.423525,-6.69105 -2.516216,-2.30478 -5.055285,-4.58534 -7.466753,-7.00053 -1.902391,-1.90297 -3.476194,-4.08099 -4.970296,-6.30784 -1.450631,-2.11647 -2.500249,-4.43405 -3.262418,-6.87457 -0.701167,-2.50189 -1.23303,-5.04412 -1.699212,-7.59875 -0.373388,-2.61717 -0.622089,-5.2507 -0.921097,-7.8773 -0.30866,-2.77426 -0.546262,-5.55145 -0.688659,-8.33911 -0.150488,-2.61648 -0.15342,-5.23371 0.05066,-7.8463 0.20517,-1.80384 0.636951,-3.57728 1.213714,-5.29667 0.342254,-0.93786 0.675166,-1.77125 1.43479,-2.44052 1.762048,-1.01909 3.507317,-2.06776 5.286145,-3.05727 0.601612,-0.33466 1.538393,-0.51764 2.193475,-0.71497 1.85769,-0.55962 0.212365,-0.0955 2.329169,-0.67292 3.403211,-0.91812 6.879381,-1.50926 10.339668,-2.16128 2.604699,-0.52429 5.231006,-0.88296 7.888745,-0.85803 1.122561,0.1391 2.281307,0.15749 3.385058,0.42993 0.570971,0.14093 1.0535,0.34666 1.600494,0.5573 1.768234,0.81496 3.242741,2.10915 4.620911,3.45947 1.619901,1.73234 2.949546,3.70246 4.155466,5.73677 1.651921,2.79295 2.663833,5.88777 3.682706,8.95002 1.018837,2.92569 1.776937,5.92936 2.647252,8.89971 0.680683,1.97275 1.155732,4.00477 1.589426,6.04306 0.437534,2.2271 1.297723,4.32943 2.164091,6.4159 0.688652,1.8614 1.397166,3.72061 1.889492,5.64531 0.532355,1.74933 1.055508,3.47656 1.361752,5.28252 0.195446,2.01525 0.694206,4.04248 0.673198,6.07668 -0.0021,0.21546 0.08879,0.52447 -0.09332,0.63964 -1.654752,1.0465 -3.472796,1.80919 -5.209196,2.71379 -0.207708,-0.28359 -0.444905,-0.54777 -0.623128,-0.85076 -1.004594,-1.70782 -1.618797,-3.69353 -2.258687,-5.55182 -0.908717,-2.639 -0.982927,-2.94567 -1.83955,-5.67983 -2.070259,-7.03089 -4.244099,-14.02984 -6.413235,-21.03063 -2.240177,-7.18408 -4.436928,-14.38048 -6.365306,-21.65509 -1.256308,-5.01435 -2.440284,-10.04991 -3.417613,-15.1267 -0.39388,-2.26714 -0.706794,-4.54909 -0.946004,-6.83772 -0.07971,-1.46578 -0.254265,-2.92301 -0.378312,-4.38519 -0.08092,-1.30816 0.05776,-2.59321 0.389734,-3.85652 0.335709,-1.21799 1.112732,-2.22442 1.833086,-3.23779 1.135282,-1.43673 2.50222,-2.67737 3.881623,-3.87517 2.327407,-1.75653 0.921882,-0.741 6.165903,-3.70261 0.444227,-0.25088 1.083,-0.47595 1.571892,-0.60773 0.710657,-0.19157 1.07891,-0.221406 1.811943,-0.327008 2.139262,-0.27168 4.301199,-0.16197 6.410891,0.256508 2.3631,0.67769 4.632677,1.69135 6.81681,2.81366 1.979872,0.97826 3.628504,2.45809 5.253019,3.92628 1.959972,1.94959 3.681852,4.11298 5.321429,6.33309 1.520304,2.12364 3.045151,4.23939 4.420354,6.46076 1.69743,2.84084 3.19067,5.79463 4.63696,8.76882 1.68962,3.57335 2.88013,7.32609 3.88328,11.13917 1.02008,4.00952 1.55322,8.11526 1.88964,12.23167 0.24307,3.37919 0.30003,6.76775 0.35359,10.15411 0.0266,1.81471 0.0469,3.6295 0.0303,5.44437 -0.0988,2.14322 -0.35206,4.27732 -0.60012,6.40766 -0.19906,1.78029 -0.5416,3.53868 -0.74169,5.31901 -0.10848,1.00629 -0.14056,2.01811 -0.14982,3.02945 -0.0617,0.0323 0.0488,1.27495 0.0472,1.27578 -5.14247,2.74594 -4.3591,4.22804 -5.26036,2.12547 -0.86832,-3.09199 -0.79193,-6.37097 -0.87285,-9.55421 -0.19056,-7.67197 0.18079,-15.34085 0.69039,-22.9933 0.55874,-7.05607 1.6098,-14.06134 2.62378,-21.06303 0.69727,-5.0301 1.94092,-9.95604 3.2853,-14.8451 0.83599,-2.76994 1.54444,-5.57862 2.39526,-8.34387 1.07625,-2.53656 2.3627,-2.4896 5.78064,-4.23477 0.36428,-0.186 1.82658,0.82354 2.0561,0.97939 2.91941,2.30492 5.58022,4.92846 8.06395,7.69168 2.09165,2.49141 3.93433,5.19579 5.3038,8.15397 0.90258,1.94967 1.08423,2.6814 1.76608,4.71959 1.483,4.73317 2.00533,9.6833 2.38056,14.60701 0.3406,5.04406 0.23511,10.10387 0.0559,15.15189 -0.11345,4.04858 -0.40584,8.08813 -0.60518,12.13255 -0.083,2.05022 -0.0874,4.09949 -0.28059,6.14323 5.3e-4,0.0742 -0.15417,1.31567 -0.15494,1.31606 -5.20462,2.60207 -4.30663,4.06305 -5.3474,1.99786 -0.78583,-2.08695 -0.80993,-4.31126 -0.77491,-6.5091 0.21473,-5.44918 1.10808,-10.83226 2.12936,-16.17858 0.96389,-4.91632 2.3657,-9.72997 3.46263,-14.6155 0.44526,-1.7801 0.61246,-3.60259 0.83078,-5.41713 0.16961,-1.12804 0.65133,-2.12683 1.31353,-3.04087 0.34554,-0.43115 0.74253,-0.82669 1.22691,-1.10228 2.70999,-1.54191 3.90861,-2.99007 6.48266,-3.12323 1.64709,-0.0537 3.17862,0.54098 4.64292,1.22755 2.18894,1.08948 4.17692,2.51328 6.09238,4.02047 2.03287,1.53749 3.81089,3.32144 5.37336,5.32855 1.66967,2.27214 2.96352,4.77713 4.12349,7.33787 1.24293,2.65751 2.17176,5.4395 3.01942,8.24308 1.04461,3.25378 1.52085,6.61713 1.78634,10.01106 0.35684,4.63227 0.36842,9.26492 0.14892,13.90243 -0.44565,5.74366 -1.37893,11.43079 -1.95531,17.16088 -0.67485,6.92359 0.0601,13.85291 0.87823,20.72683 0.60481,3.66498 0.93372,7.35365 1.07878,11.06217 0.0363,3.87572 -0.20041,7.74904 -0.46941,11.61377 -0.23066,3.23978 -0.5478,6.4728 -0.86305,9.70523 -0.24741,2.72977 -0.51107,5.45661 -0.65588,8.1942 -0.078,1.46744 -0.0793,2.93653 -0.0819,4.40539 -0.0719,1.02899 0.0811,2.02831 0.30529,3.02717 0.24244,0.92175 0.62379,1.79554 0.93093,2.69592 0.33651,0.71262 0.47498,1.47981 0.58543,2.25316 0.0122,0.11689 0.0245,0.23378 0.0368,0.35067 0,0 -4.97408,2.59035 -4.97408,2.59035 v 0 c -0.008,-0.11177 -0.0163,-0.22354 -0.0244,-0.33531 -0.0781,-0.74636 -0.20465,-1.47932 -0.53278,-2.16242 -0.27891,-0.92839 -0.67453,-1.81409 -0.93007,-2.75029 -0.24298,-1.03417 -0.44659,-2.06941 -0.37026,-3.13964 0.018,-1.4958 0.0851,-2.99128 0.17435,-4.48435 0.17963,-2.75113 0.45737,-5.49283 0.6983,-8.23888 0.3194,-3.24022 0.68418,-6.47685 0.92933,-9.72366 0.29737,-3.84329 0.53741,-7.6979 0.48607,-11.55448 -0.15016,-3.71508 -0.48585,-7.41253 -0.9274,-11.10444 -0.57827,-6.92933 -1.33032,-13.89332 -0.85711,-20.85063 0.50966,-5.71885 1.45959,-11.38255 1.90654,-17.10768 0.0948,-2.25765 0.15323,-3.0075 0.14318,-5.24084 -0.0128,-2.85029 -0.25591,-5.69021 -0.39439,-8.5354 -0.27732,-3.34898 -0.74312,-6.6704 -1.79387,-9.8772 -0.84128,-2.78062 -1.75712,-5.54218 -2.9957,-8.17589 -1.13291,-2.52524 -2.41344,-4.99043 -4.08228,-7.20975 -1.5526,-1.95979 -3.29688,-3.71266 -5.29954,-5.21991 -1.89694,-1.47623 -3.87653,-2.86321 -6.06436,-3.87965 -1.43981,-0.61001 -2.93987,-1.12458 -4.52893,-0.94279 -2.08799,0.41037 -3.86543,2.01863 3.1753,-2.19982 0.5267,-0.31557 -1.82233,0.94383 -1.30472,0.90468 -0.68719,0.83085 -1.21513,1.7057 -1.43685,2.77826 -0.29236,1.86173 -0.48578,3.74178 -1.01145,5.56199 -1.20804,4.90103 -2.69196,9.73475 -3.67028,14.69145 -1.01512,5.27672 -1.88479,10.59735 -1.95589,15.98493 0.009,2.08203 0.0504,4.19471 0.85408,6.15187 1.12042,1.85349 0.18157,0.10719 -4.74513,2.92114 -0.0465,0.0266 0.10502,0.0692 0.15371,0.0468 0.0632,-0.029 0.0971,-0.10548 0.11852,-0.1716 0.0889,-0.27409 0.0311,-0.58318 0.12767,-0.85492 0.30462,-2.05454 0.35813,-4.1246 0.4679,-6.19661 0.2504,-4.0639 0.60113,-8.12141 0.74322,-12.19161 0.2016,-5.02797 0.29928,-10.0687 -0.0405,-15.09341 -0.36402,-4.88452 -0.85192,-9.7994 -2.3065,-14.49997 -0.66962,-2.0047 -0.84966,-2.7293 -1.7355,-4.64646 -1.34888,-2.9193 -3.17937,-5.57701 -5.26358,-8.01702 -2.49165,-2.71655 -5.15326,-5.32314 -8.18767,-7.43455 -0.47701,-0.26062 -0.82867,-0.53997 -1.38343,-0.56716 -0.13832,-0.007 -0.52026,0.1723 -0.40394,0.0971 7.29684,-4.71509 4.62563,-3.48695 3.56075,-1.60025 -1.00412,2.75896 -1.69315,5.6271 -2.60965,8.41539 -1.405,4.89068 -2.70609,9.82172 -3.46739,14.86029 -1.07365,7.0095 -2.19639,14.02148 -2.77606,21.09335 -0.52187,7.60351 -0.94143,15.22958 -0.53,22.85085 0.16728,3.05929 0.18217,6.23414 1.16923,9.16719 0.85742,1.90161 0.10774,0.0643 -4.79744,2.92677 -0.038,0.0221 0.0988,0.0882 0.1217,0.0507 0.0459,-0.0754 0.007,-0.17642 0.009,-0.26467 0.003,-0.12813 0.003,-0.25628 0.005,-0.38442 10e-4,-0.14857 0.002,-0.29715 0.002,-0.44572 0.0104,-1.03588 0.0271,-2.07292 0.16017,-3.10206 0.22304,-1.79408 0.57511,-3.56574 0.81767,-5.3565 0.25237,-2.1012 0.46995,-4.21016 0.5748,-6.32421 -0.007,-1.8271 0.0331,-3.65372 0.0498,-5.48068 0.021,-3.39367 0.001,-6.7898 -0.21991,-10.17779 -0.31763,-4.08719 -0.83354,-8.16553 -1.85538,-12.14356 -0.98738,-3.77949 -2.16434,-7.5011 -3.85235,-11.03536 -1.452006,-2.94958 -2.982385,-5.86266 -4.682494,-8.67809 -1.388422,-2.19636 -2.913658,-4.29689 -4.40562,-6.42341 -1.600946,-2.20463 -3.313303,-4.33353 -5.287584,-6.21919 -1.614352,-1.41605 -3.242654,-2.84816 -5.185301,-3.80422 -2.149586,-1.0925 -4.37016,-2.12358 -6.724359,-2.68268 -2.095085,-0.34249 -4.226269,-0.41922 -6.330336,-0.0812 -0.884219,0.16913 -1.719532,0.35387 -2.545575,0.72451 -0.25006,0.1122 -0.968478,0.51245 -0.734084,0.3704 5.366994,-3.2525 5.017789,-3.03933 3.226446,-1.82924 -1.384856,1.15368 -2.71698,2.38427 -3.905816,3.74004 -0.699143,0.96221 -1.443816,1.93267 -1.88109,3.0464 -0.360611,1.20886 -0.556519,2.42216 -0.502367,3.69169 0.118851,1.46429 0.316378,2.92099 0.358106,4.39085 0.177731,2.30126 0.47321,4.59237 0.765654,6.88114 0.821007,5.11924 1.941115,10.18655 3.137214,15.22986 1.867379,7.2882 4.047615,14.4892 6.28708,21.67087 2.188493,6.98284 4.395216,13.95957 6.54051,20.95584 0.855187,2.59923 0.989357,3.10207 1.929117,5.60275 0.661048,1.75905 1.31739,3.69886 2.415093,5.25391 0.131305,0.18601 0.321715,0.32228 0.482571,0.48342 -1.469213,0.95494 -2.882069,2.00276 -4.407641,2.86481 -0.171754,0.097 0.237948,-0.33204 0.269888,-0.52671 0.06571,-0.40055 0.03637,-0.81219 0.0163,-1.21759 -0.07984,-1.61154 -0.402096,-3.19705 -0.647986,-4.78741 -0.188185,-1.01428 -0.202523,-1.24711 -0.481642,-2.19855 -0.296027,-1.00906 -0.722993,-1.98081 -0.929378,-3.01668 -0.450967,-1.91068 -1.116188,-3.7629 -1.790359,-5.60456 -0.876311,-2.11336 -1.771314,-4.23698 -2.246257,-6.4845 -0.438891,-2.02915 -0.868214,-4.06415 -1.521709,-6.0382 -0.828706,-2.98039 -1.540412,-5.99489 -2.56032,-8.91934 -1.020566,-3.01868 -2.028957,-6.0699 -3.699504,-8.80663 -1.201452,-1.98486 -2.51188,-3.91267 -4.129043,-5.58778 -1.338495,-1.29575 -2.779215,-2.53004 -4.519835,-3.24943 -1.564761,-0.54642 -3.194211,-0.77732 -4.849262,-0.84933 -2.598732,-2.3e-4 -5.168193,0.36988 -7.717879,0.85944 -3.478263,0.64582 -6.96853,1.25971 -10.370789,2.24777 -1.086559,0.32236 -2.178862,0.63889 -3.248292,1.01603 -1.881394,0.66349 -4.917049,2.60544 2.93261,-1.92503 -0.274423,0.14348 -0.528524,0.23729 -0.734094,0.4783 -0.397222,0.46571 -0.565968,1.13681 -0.863405,1.6591 -0.65315,1.67485 -1.094414,3.43165 -1.360037,5.20868 -0.255421,2.59413 -0.246843,5.19636 -0.121904,7.79906 0.129436,2.77549 0.385013,5.53788 0.691105,8.29914 0.291316,2.61625 0.557156,5.23639 0.905308,7.84546 0.446908,2.53566 0.992336,5.05118 1.684936,7.53207 0.722654,2.39885 1.737267,4.67616 3.180397,6.73713 1.473954,2.19435 2.995224,4.36669 4.863775,6.25067 2.394275,2.41636 4.903806,4.71482 7.423986,6.99871 2.305899,2.12288 4.684199,4.22102 6.582439,6.72915 1.019879,1.41664 1.941735,2.90626 3.062581,4.24791 0.211569,0.20417 0.532678,0.5343 0.786932,0.71455 0.08668,0.0615 0.367077,0.0943 0.279122,0.15392 -1.519711,1.02986 -3.174661,1.84761 -4.712385,2.85038 -0.02561,0.0167 0.466481,0.37461 0.03809,-0.0835 -0.682199,-1.04146 -1.377278,-2.07508 -2.250898,-2.97048 -1.332391,-1.37354 -2.737371,-2.68294 -4.306438,-3.78548 -1.301453,-0.92379 -2.606233,-1.84895 -3.837484,-2.86508 -0.89606,-0.81669 -1.768375,-1.65388 -2.614203,-2.52232 -1.097023,-0.95622 -2.299938,-1.83337 -3.655121,-2.38266 -1.910172,-0.61012 -3.884744,-0.82171 -5.889715,-0.72368 -2.68252,0.16797 -5.35701,0.49459 -7.911413,1.37991 -1.472535,0.51536 -2.926544,1.04446 -4.33577,1.71929 -0.462439,0.22144 -1.80248,0.97481 -1.369845,0.69964 0.664906,-0.42288 5.562232,-3.2565 2.051737,-1.17422 -1.8722,1.2984 -3.767973,2.61684 -5.283547,4.3375 -0.578117,0.75798 -1.335679,1.5848 -1.285436,2.59854 0.05057,0.94936 0.186577,1.88814 0.45754,2.80224 0.45488,1.67472 0.895125,3.35308 1.360292,5.02497 0.577438,2.2627 1.088619,4.55718 1.951765,6.73236 0.422544,0.95239 0.619758,1.46345 1.146256,2.3744 1.053799,1.82329 2.383704,3.48352 3.765232,5.06451 2.876389,3.29718 5.962063,6.40126 9.178811,9.36723 1.627802,1.43285 2.30332,2.06288 4.014047,3.42299 2.947778,2.34365 6.067094,4.4615 9.126712,6.65317 4.449659,3.18794 8.833358,6.45997 12.955212,10.06911 2.554104,2.19802 5.03729,4.48965 7.700644,6.55415 0,0 -4.72341,2.98752 -4.72341,2.98752 z"
       inkscape:connector-curvature="0" />
  </g>
</svg>
