<?xml version="1.0" encoding="UTF-8" standalone="no"?>
<!-- Created with Inkscape (http://www.inkscape.org/) -->

<svg
   xmlns:dc="http://purl.org/dc/elements/1.1/"
   xmlns:cc="http://creativecommons.org/ns#"
   xmlns:rdf="http://www.w3.org/1999/02/22-rdf-syntax-ns#"
   xmlns:svg="http://www.w3.org/2000/svg"
   xmlns="http://www.w3.org/2000/svg"
   xmlns:sodipodi="http://sodipodi.sourceforge.net/DTD/sodipodi-0.dtd"
   xmlns:inkscape="http://www.inkscape.org/namespaces/inkscape"
   width="200mm"
   height="200mm"
   viewBox="0 0 200 200"
   version="1.1"
   id="svg8"
   inkscape:version="0.92.3 (2405546, 2018-03-11)"
   sodipodi:docname="new_settle.svg">
  <defs
     id="defs2" />
  <sodipodi:namedview
     id="base"
     pagecolor="#ffffff"
     bordercolor="#666666"
     borderopacity="1.0"
     inkscape:pageopacity="0.0"
     inkscape:pageshadow="2"
     inkscape:zoom="0.7"
     inkscape:cx="122.663"
     inkscape:cy="353.37998"
     inkscape:document-units="mm"
     inkscape:current-layer="layer1"
     showgrid="false"
     inkscape:snap-page="true"
     inkscape:window-width="1853"
     inkscape:window-height="1025"
     inkscape:window-x="67"
     inkscape:window-y="27"
     inkscape:window-maximized="1"
     inkscape:snap-object-midpoints="true" />
  <metadata
     id="metadata5">
    <rdf:RDF>
      <cc:Work
         rdf:about="">
        <dc:format>image/svg+xml</dc:format>
        <dc:type
           rdf:resource="http://purl.org/dc/dcmitype/StillImage" />
        <dc:title></dc:title>
      </cc:Work>
    </rdf:RDF>
  </metadata>
  <g
     inkscape:label="Layer 1"
     inkscape:groupmode="layer"
     id="layer1"
     transform="translate(0,-97)">
    <rect
       style="display:inline;opacity:1;fill:#11ea0a;fill-opacity:1;stroke:none;stroke-width:0.05;stroke-linecap:round;stroke-linejoin:round;stroke-miterlimit:4;stroke-dasharray:none;stroke-dashoffset:0;stroke-opacity:1;paint-order:stroke fill markers"
       id="rect829"
       width="54.470642"
       height="20.827011"
       x="13.586107"
       y="126.70256" />
    <rect
       style="display:inline;opacity:1;fill:#11ea0a;fill-opacity:1;stroke:none;stroke-width:0.05;stroke-linecap:round;stroke-linejoin:round;stroke-miterlimit:4;stroke-dasharray:none;stroke-dashoffset:0;stroke-opacity:1;paint-order:stroke fill markers"
       id="rect829-3"
       width="54.470642"
       height="20.827011"
       x="109.88075"
       y="-51.234943"
       transform="rotate(90)" />
    <g
       aria-label="S"
       transform="matrix(0.93871001,0,0,0.93871001,566.54228,-45.732874)"
       inkscape:transform-center-x="48.276518"
       inkscape:transform-center-y="-53.640573"
       style="font-style:normal;font-weight:normal;font-size:40px;line-height:1.25;font-family:sans-serif;letter-spacing:0px;word-spacing:0px;fill:#000000;fill-opacity:1;stroke:none;stroke-width:0.28185844"
       id="flowRoot3204">
      <path
         d="m -432.96484,197.54883 v 18.46875 q -10.78125,-5.15625 -20.34375,-7.6875 -9.5625,-2.53125 -18.46875,-2.53125 -15.46875,0 -23.90625,6 -8.34375,6 -8.34375,17.0625 0,9.28125 5.53125,14.0625 5.625,4.6875 21.1875,7.59375 l 11.4375,2.34375 q 21.1875,4.03125 31.21875,14.25 10.125,10.125 10.125,27.1875 0,20.34375 -13.6875,30.84375 -13.59375,10.5 -39.9375,10.5 -9.9375,0 -21.1875,-2.25 -11.15625,-2.25 -23.15625,-6.65625 v -19.5 q 11.53125,6.46875 22.59375,9.75 11.0625,3.28125 21.75,3.28125 16.21875,0 25.03125,-6.375 8.8125,-6.375 8.8125,-18.1875 0,-10.3125 -6.375,-16.125 -6.28125,-5.8125 -20.71875,-8.71875 l -11.53125,-2.25 q -21.1875,-4.21875 -30.65625,-13.21875 -9.46875,-9 -9.46875,-25.03125 0,-18.5625 13.03125,-29.25 13.125,-10.6875 36.09375,-10.6875 9.84375,0 20.0625,1.78125 10.21875,1.78125 20.90625,5.34375 z"
         style="font-size:192px;stroke-width:0.28185844"
         id="path3212" />
    </g>
  </g>
</svg>
