<?xml version="1.0" encoding="utf-8"?>
<!-- Generator: Adobe Illustrator 15.0.0, SVG Export Plug-In . SVG Version: 6.00 Build 0)  -->
<!DOCTYPE svg PUBLIC "-//W3C//DTD SVG 1.1//EN" "http://www.w3.org/Graphics/SVG/1.1/DTD/svg11.dtd">
<svg version="1.1" id="Layer_1" xmlns="http://www.w3.org/2000/svg" xmlns:xlink="http://www.w3.org/1999/xlink" x="0px" y="0px"
	 width="400px" height="400px" viewBox="0 0 400 400" enable-background="new 0 0 400 400" xml:space="preserve">
<polyline fill="none" stroke="#000000" stroke-width="3" stroke-linecap="round" stroke-miterlimit="10" points="97.972,271.167 
	158.765,247.602 228.963,247.602 289.755,271.167 "/>
<polyline fill="none" stroke="#000000" stroke-width="7" stroke-linecap="round" stroke-linejoin="round" stroke-miterlimit="10" points="
	97.972,331.058 32.244,314.903 32.244,287.213 32.244,287.321 97.972,271.167 "/>
<polyline fill="none" stroke="#000000" stroke-width="7" stroke-linecap="round" stroke-linejoin="round" stroke-miterlimit="10" points="
	289.755,331.058 355.483,314.903 355.483,287.213 355.483,287.321 289.755,271.167 "/>
<rect x="295.862" y="182.452" fill="#845A36" width="38.139" height="121.521"/>
<path fill="#005B2D" d="M353.894,166.418c0.25-1.657,0.382-3.353,0.382-5.08c0-11.058-5.337-20.868-13.575-27
	c-7.535-12.111-20.961-20.177-36.275-20.177c-23.584,0-42.703,19.12-42.703,42.704c0,0.762,0.021,1.519,0.062,2.271
	c-4.704,6.537-7.478,14.555-7.478,23.225c0,11.059,4.511,21.062,11.788,28.279c-0.016,0.504-0.039,1.006-0.039,1.515
	c0,24.887,20.175,45.062,45.063,45.062c12.753,0,24.258-5.306,32.457-13.821c18.335-4.339,31.981-20.802,31.981-40.464
	C375.557,187.182,366.801,173.478,353.894,166.418z"/>
<rect x="136.019" y="134.422" fill="#845A36" width="38.138" height="121.521"/>
<path fill="#005B2D" d="M215.714,134.33c0-21.523-17.075-39.049-38.415-39.794c-6.043-8.967-16.29-14.865-27.916-14.865
	c-18.578,0-33.638,15.06-33.638,33.637c0,1.727,0.131,3.422,0.381,5.079c-12.907,7.061-21.664,20.764-21.664,36.514
	c0,19.662,13.647,36.125,31.983,40.465c8.197,8.516,19.704,13.821,32.457,13.821c24.888,0,45.063-20.174,45.063-45.062
	c0-0.508-0.022-1.011-0.038-1.515C211.203,155.392,215.714,145.389,215.714,134.33z"/>
<rect x="81.385" y="185.22" fill="#8C6239" width="38.138" height="121.52"/>
<path fill="#006837" d="M158.096,209.484c3.681-5.143,5.854-11.436,5.854-18.241c0-12.508-7.321-23.305-17.911-28.344
	c-4.609-16.122-19.444-27.928-37.047-27.928c-12.842,0-24.209,6.287-31.212,15.944c-1.573-0.209-3.174-0.329-4.804-0.329
	c-19.893,0-36.018,16.125-36.018,36.017c0,15.047,9.228,27.931,22.332,33.317c3.656,18.296,19.803,32.083,39.173,32.083
	c14.903,0,27.892-8.167,34.759-20.265C145.302,229.968,155.044,221.098,158.096,209.484z"/>
<polyline fill="none" stroke="#000000" stroke-width="7" stroke-linecap="round" stroke-miterlimit="10" points="97.972,331.058 
	158.765,366.157 228.963,366.157 289.755,331.058 "/>
<path fill="#FFFFFF" d="M361.703,151.146c-0.965,0.773-1.979,1.425-3.033,1.967c-6.982,11.406-21.135,20.376-29.355,30.422
	c-8.489,9.905-18.282,21.078-30.557,22.86l-0.802,0.79h-11.313l-20.049,11.311l-22.106,19.021l-11.824,22.622l-26.222,23.135
	l-27.247,25.705l-5.142,16.965l19.022,11.313h37.273l42.414-10.285l29.818-13.366l16.452-16.45l9.253-20.565l5.654-18.508
	l7.711-12.338l25.708-27.248l32.64-32.64v-68.815C388.298,129.216,376.029,140.8,361.703,151.146z"/>
<path d="M359.143,217.942c-7.197-10.978-14.375-24.752-26.572-29.258l67.43-66.68V108.25l-81.774,80.865l0.286,0.289
	c-0.925,0.756-1.714,1.695-2.273,2.593c-2.136,3.426-4.336,6.533-8.378,7.97c-0.925,0.332-1.801,0.833-2.585,1.447
	c-26.541-5.932-57.113,24.285-70.653,44.378c-1.534,2.353-2.992,4.754-4.376,7.193c-0.379,0.639-0.61,1.224-0.776,1.771
	c-4.479,10.703-15.491,18.234-24.306,25.156c-9.404,7.387-19.026,14.514-26.974,23.518c-10.231,11.589-12.759,28.24,2.348,36.452
	c15.601,8.471,39.019,3.552,55.482,0.844c19.402-3.193,38.623-7.77,56.43-16.309c23.111-11.077,41.166-37.918,44.478-64.88
	c1.192-0.534,2.301-1.435,3.093-2.252c8.073-8.34,13.617-18.57,20.551-27.794l0.397,0.401L400,191.295v-13.756L359.143,217.942z
	 M320.508,283.923c-7.766,21.258-27.859,31.629-48.085,38.24c-13.044,4.264-26.837,6.724-40.374,8.836
	c-14.213,2.214-34.769,5.644-47.598-2.804c-16.526-10.878,12.433-30.735,20.146-36.755c12.893-10.063,27.26-20.24,34.036-35.605
	c0.007-0.012,0.015-0.024,0.023-0.036c11.113-18.911,26.675-36.374,48.325-42.827c12.371-3.683,20.998,0.805,29.418,9.869
	C331.197,238.768,327.242,265.499,320.508,283.923z M337.382,247.347c-0.669-12.876-5.101-25.235-14.453-35.306
	c-2.422-2.605-4.944-4.668-7.525-6.332c2.647-2.135,4.938-4.699,6.992-7.558c14.17,1.476,21.586,18.656,28.915,29.563
	C346.692,234.287,342.476,241.149,337.382,247.347z"/>
<rect x="169.861" y="179.449" fill="#8C6239" width="48.005" height="171.16"/>
<path fill="#006D36" d="M284.514,195.474c0-35.862-29.072-64.933-64.934-64.933c-15.113,0-29.012,5.179-40.046,13.84
	c-7.981-6.041-17.922-9.628-28.703-9.628c-26.299,0-47.618,21.319-47.618,47.616c0,12.971,5.19,24.72,13.601,33.308
	c-2.383,6.267-3.699,13.058-3.699,20.16c0,31.337,25.404,56.743,56.743,56.743c22.551,0,42.028-13.156,51.179-32.21
	C256.223,259.594,284.514,230.849,284.514,195.474z"/>
</svg>
