<?xml version="1.0" encoding="utf-8"?>
<!-- Generator: Adobe Illustrator 15.0.0, SVG Export Plug-In . SVG Version: 6.00 Build 0)  -->
<!DOCTYPE svg PUBLIC "-//W3C//DTD SVG 1.1//EN" "http://www.w3.org/Graphics/SVG/1.1/DTD/svg11.dtd">
<svg version="1.1" id="Layer_1" xmlns="http://www.w3.org/2000/svg" xmlns:xlink="http://www.w3.org/1999/xlink" x="0px" y="0px"
	 width="400px" height="400px" viewBox="0 0 400 400" enable-background="new 0 0 400 400" xml:space="preserve">
<polygon fill="#FFFFFF" stroke="#000000" stroke-width="7" stroke-linecap="round" stroke-linejoin="round" stroke-miterlimit="10" points="
	121.301,359.152 42.603,303.672 121.301,248.192 278.698,248.192 357.396,303.672 278.698,359.152 "/>
<path fill="#FFFFFF" d="M363.122,113.368c0.044,0.881-0.175,1.781-0.776,2.681c-8.615,9.19-16.679,18.376-25.124,27.163
	c-9.005,9.369-18.446,18.283-29.471,26.245c-0.742,0.595-1.522,1.097-2.334,1.514c-5.373,8.777-16.264,15.68-22.589,23.41
	c-6.533,7.623-14.069,16.221-23.515,17.592l-0.617,0.607h-8.705l-15.428,8.704l-17.012,14.638l-9.099,17.408l-20.178,17.803
	l-20.967,19.78l-3.957,13.055l14.638,8.705h28.683l32.639-7.914l22.946-10.286l12.66-12.658l7.12-15.826l4.352-14.242l5.934-9.494
	l19.782-20.968l25.117-25.117L400,133.389v-54.24L363.122,113.368z"/>
<path d="M337.222,189.767l-31.44,31.091c-5.539-8.447-11.063-19.047-20.448-22.515l51.889-51.311L400,84.952V74.367l-62.778,62.08
	l-62.927,62.228l0.22,0.223c-0.712,0.582-1.318,1.304-1.749,1.995c-1.644,2.637-3.337,5.027-6.447,6.133
	c-0.712,0.256-1.386,0.641-1.989,1.113c-20.424-4.564-43.95,18.688-54.369,34.15c-1.181,1.811-2.303,3.658-3.367,5.535
	c-0.292,0.491-0.47,0.941-0.598,1.363c-3.446,8.236-11.921,14.031-18.704,19.358c-7.237,5.685-14.641,11.169-20.757,18.097
	c-7.874,8.918-9.819,21.732,1.807,28.051c12.005,6.519,30.025,2.733,42.694,0.649c14.931-2.457,29.722-5.979,43.424-12.55
	c17.785-8.523,31.678-29.179,34.227-49.926c0.918-0.411,1.771-1.104,2.38-1.733c6.213-6.418,10.479-14.29,15.814-21.388l0.306,0.309
	l30.036-29.703L400,138.271v-10.585L337.222,189.767z M276.051,271.632c-5.976,16.357-21.438,24.339-37.002,29.426
	c-10.038,3.281-20.652,5.175-31.069,6.8c-10.937,1.704-26.755,4.343-36.627-2.157c-12.717-8.371,9.567-23.651,15.503-28.284
	c9.921-7.744,20.977-15.575,26.191-27.398c0.005-0.01,0.012-0.02,0.018-0.028c8.553-14.553,20.527-27.991,37.188-32.956
	c9.521-2.834,16.159,0.619,22.638,7.594C284.276,236.884,281.233,257.454,276.051,271.632z M289.036,243.485
	c-0.516-9.908-3.926-19.419-11.122-27.169c-1.864-2.005-3.805-3.592-5.791-4.872c2.037-1.644,3.799-3.616,5.38-5.817
	c10.904,1.137,16.611,14.357,22.251,22.75C296.2,233.436,292.955,238.716,289.036,243.485z"/>
</svg>
