<?xml version="1.0" encoding="utf-8"?>
<!-- Generator: Adobe Illustrator 15.0.0, SVG Export Plug-In . SVG Version: 6.00 Build 0)  -->
<!DOCTYPE svg PUBLIC "-//W3C//DTD SVG 1.1//EN" "http://www.w3.org/Graphics/SVG/1.1/DTD/svg11.dtd">
<svg version="1.1" xmlns="http://www.w3.org/2000/svg" xmlns:xlink="http://www.w3.org/1999/xlink" x="0px" y="0px" width="400px"
	 height="400px" viewBox="0 0 400 400" enable-background="new 0 0 400 400" xml:space="preserve">
<g id="road">
	<polygon fill="#999999" points="0,184 118.5,400 353.334,400 399.997,400 399.997,362.334 399.997,251 	"/>
	<polygon fill="#FFFF00" points="399.997,391.828 0,184 385.172,400 399.997,400 	"/>
</g>
<g id="Layer_1">
	<path fill="#FFFFFF" d="M361.702,172.658c-0.965,0.773-1.979,1.425-3.033,1.967c-6.981,11.406-21.135,20.377-29.354,30.422
		c-8.489,9.905-18.282,21.079-30.558,22.86l-0.802,0.791h-11.313l-20.049,11.311l-22.105,19.021l-11.824,22.621l-26.223,23.135
		l-27.246,25.705l-5.143,16.965l19.022,11.313h37.272l42.414-10.283l29.818-13.367l16.452-16.449l9.253-20.566l5.654-18.508
		l7.711-12.338l25.708-27.248l32.64-32.64v-68.815C388.297,150.728,376.028,162.312,361.702,172.658z"/>
	<path d="M400,129.762l-81.774,80.866l0.286,0.288c-0.925,0.757-1.714,1.695-2.272,2.593c-2.137,3.426-4.336,6.533-8.378,7.971
		c-0.925,0.332-1.802,0.832-2.585,1.447c-26.541-5.933-57.113,24.285-70.653,44.377c-1.534,2.354-2.992,4.754-4.376,7.193
		c-0.379,0.639-0.609,1.225-0.775,1.771c-4.479,10.703-15.492,18.234-24.307,25.156c-9.404,7.387-19.025,14.514-26.975,23.518
		c-10.23,11.59-12.758,28.24,2.349,36.451c15.601,8.473,39.019,3.553,55.481,0.846c19.402-3.193,38.623-7.771,56.431-16.311
		c23.11-11.076,41.166-37.918,44.478-64.879c1.192-0.535,2.302-1.436,3.094-2.252c8.072-8.34,13.616-18.57,20.551-27.795
		l0.396,0.402l39.029-38.598v-13.757l-40.857,40.403c-7.196-10.979-14.375-24.752-26.571-29.258l67.43-66.68V129.762z
		 M320.507,305.435c-7.766,21.26-27.859,31.629-48.085,38.24c-13.044,4.264-26.837,6.725-40.374,8.836
		c-14.213,2.215-34.77,5.645-47.598-2.803c-16.526-10.879,12.433-30.736,20.146-36.756c12.893-10.063,27.26-20.24,34.035-35.605
		c0.008-0.012,0.016-0.023,0.023-0.035c11.113-18.91,26.675-36.375,48.324-42.826c12.371-3.684,20.998,0.805,29.419,9.867
		C331.196,260.28,327.241,287.011,320.507,305.435z M351.31,249.226c-4.618,6.574-8.835,13.436-13.929,19.635
		c-0.669-12.877-5.101-25.236-14.453-35.307c-2.422-2.605-4.943-4.668-7.524-6.332c2.646-2.135,4.938-4.699,6.992-7.559
		C336.565,221.14,343.981,238.319,351.31,249.226z"/>
</g>
</svg>
