<?xml version="1.0" encoding="utf-8"?>
<!-- Generator: Adobe Illustrator 15.0.0, SVG Export Plug-In . SVG Version: 6.00 Build 0)  -->
<!DOCTYPE svg PUBLIC "-//W3C//DTD SVG 1.1//EN" "http://www.w3.org/Graphics/SVG/1.1/DTD/svg11.dtd">
<svg version="1.1" id="Layer_1" xmlns="http://www.w3.org/2000/svg" xmlns:xlink="http://www.w3.org/1999/xlink" x="0px" y="0px"
	 width="400px" height="400px" viewBox="0 0 400 400" enable-background="new 0 0 400 400" xml:space="preserve">
<path d="M257.565,185.217v-38.294c0-1.5-1.217-2.715-2.716-2.715h-21.271c-1.497,0-2.713,1.216-2.713,2.715v22.831L257.565,185.217z
	"/>
<path d="M283.576,205.936l-96.191-55.705c-0.842-0.488-1.881-0.488-2.721,0l-96.191,55.705c-1.298,0.752-1.74,2.412-0.989,3.711
	c0.752,1.297,2.414,1.74,3.711,0.99l4.058-2.354h0.721v100.764c0,1.498,1.216,2.715,2.715,2.715h71.005V257.49
	c0-1.5,1.216-2.715,2.715-2.715h27.23c1.499,0,2.716,1.215,2.716,2.715v54.271h71.006c1.498,0,2.714-1.217,2.714-2.715V208.283
	h0.721l4.061,2.354c0.427,0.245,0.896,0.365,1.355,0.365c0.938,0,1.85-0.486,2.354-1.355
	C285.316,208.348,284.873,206.688,283.576,205.936z"/>
<path opacity="0.2" enable-background="new    " d="M265.046,91.553c0.936-9.793-6.248-18.494-16.042-19.431
	c-9.798-0.934-18.498,6.249-19.434,16.044c-0.265,2.793,0.146,5.489,1.072,7.949c-2.425,2.604-3.92,6.085-3.92,9.922
	c0,5.429,2.974,10.157,7.374,12.667c0.424,2.486,1.527,4.735,3.12,6.555c-0.767,1.358-1.21,2.926-1.21,4.596
	c0,5.18,4.197,9.377,9.38,9.377c5.18,0,9.377-4.197,9.377-9.377c0-0.728-0.09-1.434-0.246-2.114
	c3.729-2.383,6.208-6.549,6.208-11.302c0-4.149-1.882-7.855-4.84-10.316c0-0.028,0.004-0.056,0.004-0.084
	c0-0.186-0.022-0.364-0.028-0.548C260.861,102.749,264.464,97.659,265.046,91.553z"/>
<polyline fill="none" stroke="#000000" stroke-width="3" stroke-linecap="round" stroke-miterlimit="10" points="97.972,265.314 
	158.765,241.75 228.962,241.75 289.754,265.314 "/>
<polyline fill="none" stroke="#000000" stroke-width="7" stroke-linecap="round" stroke-linejoin="round" stroke-miterlimit="10" points="
	97.972,325.207 32.243,309.051 32.243,281.361 32.243,281.469 97.972,265.314 "/>
<polyline fill="none" stroke="#000000" stroke-width="7" stroke-linecap="round" stroke-linejoin="round" stroke-miterlimit="10" points="
	289.754,325.207 355.482,309.051 355.482,281.361 355.482,281.469 289.754,265.314 "/>
<polyline fill="none" stroke="#000000" stroke-width="7" stroke-linecap="round" stroke-miterlimit="10" points="97.972,325.207 
	158.765,360.305 228.962,360.305 289.754,325.207 "/>
<path fill="#FFFFFF" d="M361.702,145.294c-0.965,0.772-1.979,1.425-3.033,1.967c-6.981,11.406-21.135,20.376-29.354,30.423
	c-8.489,9.904-18.282,21.078-30.558,22.859l-0.802,0.791h-11.313l-20.049,11.311l-22.105,19.021l-11.824,22.621l-26.223,23.135
	l-27.246,25.705l-5.143,16.965l19.022,11.313h37.272l42.414-10.283l29.818-13.367l16.452-16.449l9.253-20.566l5.654-18.508
	l7.711-12.338l25.708-27.248l32.64-32.64V111.19C388.297,123.364,376.028,134.947,361.702,145.294z"/>
<path d="M359.142,212.09c-7.196-10.979-14.375-24.752-26.571-29.258l67.43-66.68v-13.754l-81.774,80.866l0.286,0.288
	c-0.925,0.757-1.714,1.695-2.272,2.593c-2.137,3.426-4.336,6.533-8.378,7.971c-0.925,0.332-1.802,0.832-2.585,1.447
	c-26.541-5.933-57.113,24.285-70.653,44.377c-1.534,2.354-2.992,4.754-4.376,7.193c-0.379,0.639-0.609,1.225-0.775,1.771
	c-4.479,10.703-15.492,18.234-24.307,25.156c-9.404,7.387-19.025,14.514-26.975,23.518c-10.23,11.59-12.758,28.24,2.349,36.451
	c15.601,8.473,39.019,3.553,55.481,0.846c19.402-3.193,38.623-7.771,56.431-16.311c23.11-11.076,41.166-37.918,44.478-64.879
	c1.192-0.535,2.302-1.436,3.094-2.252c8.072-8.34,13.616-18.57,20.551-27.795l0.396,0.402l39.029-38.598v-13.756L359.142,212.09z
	 M320.507,278.07c-7.766,21.26-27.859,31.629-48.085,38.24c-13.044,4.264-26.837,6.725-40.374,8.836
	c-14.213,2.215-34.77,5.645-47.598-2.803c-16.526-10.879,12.433-30.736,20.146-36.756c12.893-10.063,27.26-20.24,34.035-35.605
	c0.008-0.012,0.016-0.023,0.023-0.035c11.113-18.91,26.675-36.375,48.324-42.826c12.371-3.684,20.998,0.805,29.419,9.867
	C331.196,232.916,327.241,259.646,320.507,278.07z M337.381,241.496c-0.669-12.877-5.101-25.236-14.453-35.307
	c-2.422-2.605-4.943-4.668-7.524-6.332c2.646-2.135,4.938-4.699,6.992-7.559c14.17,1.477,21.586,18.656,28.914,29.563
	C346.691,228.436,342.475,235.297,337.381,241.496z"/>
</svg>
