<?xml version="1.0" encoding="utf-8"?>
<!-- Generator: Adobe Illustrator 15.0.0, SVG Export Plug-In . SVG Version: 6.00 Build 0)  -->
<!DOCTYPE svg PUBLIC "-//W3C//DTD SVG 1.1//EN" "http://www.w3.org/Graphics/SVG/1.1/DTD/svg11.dtd">
<svg version="1.1" id="Layer_1" xmlns="http://www.w3.org/2000/svg" xmlns:xlink="http://www.w3.org/1999/xlink" x="0px" y="0px"
	 width="400px" height="400px" viewBox="0 0 400 400" enable-background="new 0 0 400 400" xml:space="preserve">
<polyline fill="none" stroke="#000000" stroke-width="7" stroke-linecap="round" stroke-linejoin="round" stroke-miterlimit="10" points="
	106.411,211.827 40.682,195.671 40.682,167.981 40.682,168.089 106.411,151.935 "/>
<polyline fill="none" stroke="#000000" stroke-width="7" stroke-linecap="round" stroke-linejoin="round" stroke-miterlimit="10" points="
	298.193,211.827 363.922,195.671 363.922,167.981 363.922,168.089 298.193,151.935 "/>
<polyline fill="none" stroke="#000000" stroke-width="7" stroke-linecap="round" stroke-miterlimit="10" points="106.411,211.827 
	167.204,246.925 237.4,246.925 298.193,211.827 "/>
<g id="layer1" transform="translate(0,-97)" inkscape:label="dungeon" sodipodi:insensitive="true" inkscape:groupmode="layer">
	<path id="path817" inkscape:connector-curvature="0" stroke="#000000" stroke-width="0.2646" d="M325.712,282.427H65.304
		 M65.304,282.427l68.39-97.324l27.181,27.181l54.36-100.832l110.478,170.975"/>
	<path id="path824" inkscape:connector-curvature="0" fill="#FFFFFF" d="M226.96,237.181c0,10.653-8.652,19.289-19.326,19.289
		c-10.672,0-19.324-8.636-19.324-19.289c0-10.653,8.652-19.29,19.324-19.29l0,0C218.308,217.892,226.96,226.528,226.96,237.181
		L226.96,237.181L226.96,237.181z M188.356,237.693h38.579v46.47h-38.579V237.693z"/>
</g>
<g id="layer3" inkscape:label="cursor" sodipodi:insensitive="true" inkscape:groupmode="layer">
	
		<path id="path841" inkscape:connector-curvature="0" sodipodi:nodetypes="cccccccc" fill="#FFFFFF" stroke="#000000" stroke-width="10" stroke-linejoin="round" d="
		M366.953,291.875l-74.352,21.016l25.75,36.992l-23.518,15.914l-24.768-37.656l-47.15,61.211L174.08,162.031L366.953,291.875z"/>
</g>
</svg>
