<?xml version="1.0" encoding="UTF-8" standalone="no"?>
<!-- Created with Inkscape (http://www.inkscape.org/) -->

<svg
   xmlns:dc="http://purl.org/dc/elements/1.1/"
   xmlns:cc="http://creativecommons.org/ns#"
   xmlns:rdf="http://www.w3.org/1999/02/22-rdf-syntax-ns#"
   xmlns:svg="http://www.w3.org/2000/svg"
   xmlns="http://www.w3.org/2000/svg"
   xmlns:sodipodi="http://sodipodi.sourceforge.net/DTD/sodipodi-0.dtd"
   xmlns:inkscape="http://www.inkscape.org/namespaces/inkscape"
   width="200mm"
   height="200mm"
   viewBox="0 0 200 200"
   version="1.1"
   id="svg8"
   inkscape:version="0.92.3 (2405546, 2018-03-11)"
   sodipodi:docname="select_county.svg">
  <defs
     id="defs2" />
  <sodipodi:namedview
     id="base"
     pagecolor="#ffffff"
     bordercolor="#666666"
     borderopacity="1.0"
     inkscape:pageopacity="0.0"
     inkscape:pageshadow="2"
     inkscape:zoom="0.7"
     inkscape:cx="122.663"
     inkscape:cy="353.37998"
     inkscape:document-units="mm"
     inkscape:current-layer="layer1"
     showgrid="false"
     inkscape:snap-page="true"
     inkscape:window-width="1853"
     inkscape:window-height="1025"
     inkscape:window-x="67"
     inkscape:window-y="27"
     inkscape:window-maximized="1"
     inkscape:snap-object-midpoints="true" />
  <metadata
     id="metadata5">
    <rdf:RDF>
      <cc:Work
         rdf:about="">
        <dc:format>image/svg+xml</dc:format>
        <dc:type
           rdf:resource="http://purl.org/dc/dcmitype/StillImage" />
        <dc:title></dc:title>
      </cc:Work>
    </rdf:RDF>
  </metadata>
  <g
     inkscape:label="Layer 1"
     inkscape:groupmode="layer"
     id="layer1"
     transform="translate(0,-97)">
    <g
       aria-label="C"
       transform="matrix(0.93067465,0,0,0.93067465,7.7447848,87.908386)"
       style="font-style:normal;font-weight:normal;font-size:40px;line-height:1.25;font-family:sans-serif;letter-spacing:0px;word-spacing:0px;fill:#000000;fill-opacity:1;stroke:none;stroke-width:0.28429198"
       id="flowRoot815">
      <path
         d="M 123.65625,40.6875 V 60.65625 Q 114.09375,51.75 103.21875,47.34375 92.4375,42.9375 80.25,42.9375 q -24,0 -36.75,14.71875 -12.75,14.625 -12.75,42.375 0,27.65625 12.75,42.375 12.75,14.625 36.75,14.625 12.1875,0 22.96875,-4.40625 10.875,-4.40625 20.4375,-13.3125 v 19.78125 q -9.9375,6.75 -21.09375,10.125 -11.0625,3.375 -23.4375,3.375 -31.78125,0 -50.0625,-19.40625 -18.28125,-19.5 -18.28125,-53.15625 0,-33.75 18.28125,-53.15625 18.28125,-19.5 50.0625,-19.5 12.5625,0 23.625,3.375 11.15625,3.28125 20.90625,9.9375 z"
         style="font-size:192px;stroke-width:0.28429198"
         id="path847"
         inkscape:connector-curvature="0" />
    </g>
    <path
       id="path841"
       style="fill:#ffffff;fill-opacity:1;stroke:#000000;stroke-width:3;stroke-linecap:butt;stroke-linejoin:round;stroke-miterlimit:4;stroke-dasharray:none;stroke-opacity:1"
       d="m 169.71418,232.40601 -26.22967,7.41346 9.08361,13.05028 -8.29608,5.61426 -8.73792,-13.2842 -16.63342,21.59356 -17.22784,-80.19387 z"
       inkscape:connector-curvature="0"
       sodipodi:nodetypes="cccccccc" />
  </g>
</svg>
