<?xml version="1.0" encoding="utf-8"?>
<!-- Generator: Adobe Illustrator 15.0.0, SVG Export Plug-In . SVG Version: 6.00 Build 0)  -->
<!DOCTYPE svg PUBLIC "-//W3C//DTD SVG 1.1//EN" "http://www.w3.org/Graphics/SVG/1.1/DTD/svg11.dtd">
<svg version="1.1" id="Layer_1" xmlns="http://www.w3.org/2000/svg" xmlns:xlink="http://www.w3.org/1999/xlink" x="0px" y="0px"
	 width="400px" height="400px" viewBox="0 0 400 400" enable-background="new 0 0 400 400" xml:space="preserve">
<polyline fill="none" stroke="#000000" stroke-width="7" stroke-linecap="round" stroke-miterlimit="10" points="82.459,183.082 
	135.448,162.542 196.635,162.542 249.622,183.082 "/>
<polyline fill="none" stroke="#000000" stroke-width="7" stroke-linecap="round" stroke-linejoin="round" stroke-miterlimit="10" points="
	82.459,235.284 25.169,221.204 25.169,197.068 25.169,197.163 82.459,183.082 "/>
<polyline fill="none" stroke="#000000" stroke-width="7" stroke-linecap="round" stroke-linejoin="round" stroke-miterlimit="10" points="
	249.622,235.284 306.913,221.204 306.913,197.068 306.913,197.163 249.622,183.082 "/>
<rect x="254.946" y="105.756" fill="#845A36" width="33.242" height="105.921"/>
<path fill="#005B2D" d="M305.527,91.78c0.218-1.444,0.334-2.922,0.334-4.428c0-9.639-4.652-18.189-11.833-23.534
	c-6.568-10.556-18.271-17.587-31.619-17.587c-20.557,0-37.222,16.666-37.222,37.222c0,0.664,0.02,1.324,0.055,1.979
	c-4.101,5.698-6.519,12.687-6.519,20.243c0,9.639,3.933,18.358,10.276,24.649c-0.014,0.439-0.034,0.876-0.034,1.32
	c0,21.692,17.584,39.277,39.277,39.277c11.117,0,21.144-4.625,28.291-12.047c15.981-3.782,27.876-18.131,27.876-35.27
	C324.41,109.878,316.778,97.934,305.527,91.78z"/>
<rect x="115.622" y="63.891" fill="#845A36" width="33.243" height="105.921"/>
<path fill="#005B2D" d="M185.086,63.811c0-18.76-14.883-34.036-33.483-34.686c-5.268-7.816-14.199-12.957-24.333-12.957
	c-16.193,0-29.32,13.127-29.32,29.319c0,1.505,0.115,2.983,0.333,4.427C87.033,56.068,79.4,68.013,79.4,81.74
	c0,17.138,11.896,31.488,27.877,35.271c7.145,7.423,17.175,12.046,28.291,12.046c21.693,0,39.278-17.584,39.278-39.277
	c0-0.443-0.02-0.881-0.033-1.32C181.155,82.169,185.086,73.45,185.086,63.811z"/>
<rect x="68.002" y="108.168" fill="#8C6239" width="33.242" height="105.92"/>
<path fill="#006837" d="M134.865,129.318c3.208-4.482,5.103-9.968,5.103-15.9c0-10.902-6.381-20.313-15.611-24.706
	C120.339,74.66,107.408,64.37,92.065,64.37c-11.193,0-21.102,5.48-27.206,13.897c-1.372-0.183-2.767-0.287-4.188-0.287
	c-17.339,0-31.394,14.056-31.394,31.394c0,13.115,8.043,24.345,19.465,29.041c3.187,15.947,17.26,27.964,34.145,27.964
	c12.99,0,24.312-7.119,30.297-17.663C123.713,147.172,132.205,139.44,134.865,129.318z"/>
<polyline fill="none" stroke="#000000" stroke-width="7" stroke-linecap="round" stroke-miterlimit="10" points="82.459,235.284 
	135.448,265.878 196.635,265.878 249.622,235.284 "/>
<rect x="145.12" y="103.138" fill="#8C6239" width="41.842" height="149.188"/>
<path fill="#006D36" d="M245.055,117.106c0-31.258-25.34-56.597-56.598-56.597c-13.174,0-25.288,4.514-34.906,12.063
	c-6.957-5.265-15.621-8.392-25.019-8.392c-22.923,0-41.505,18.582-41.505,41.503c0,11.306,4.524,21.546,11.854,29.032
	c-2.077,5.462-3.224,11.382-3.224,17.572c0,27.314,22.143,49.459,49.459,49.459c19.656,0,36.632-11.467,44.609-28.075
	C220.396,172.995,245.055,147.939,245.055,117.106z"/>
<path id="path841" inkscape:connector-curvature="0" sodipodi:nodetypes="cccccccc" fill="#FFFFFF" stroke="#000000" stroke-width="8" stroke-linejoin="round" d="
	M374.704,284.899l-74.352,21.016l25.748,36.992l-23.516,15.914l-24.77-37.656l-47.15,61.211l-48.834-227.321L374.704,284.899z"/>
</svg>
