<?xml version="1.0" encoding="utf-8"?>
<!-- Generator: Adobe Illustrator 15.0.0, SVG Export Plug-In . SVG Version: 6.00 Build 0)  -->
<!DOCTYPE svg PUBLIC "-//W3C//DTD SVG 1.1//EN" "http://www.w3.org/Graphics/SVG/1.1/DTD/svg11.dtd">
<svg version="1.1" id="Layer_1" xmlns="http://www.w3.org/2000/svg" xmlns:xlink="http://www.w3.org/1999/xlink" x="0px" y="0px"
	 width="200px" height="200px" viewBox="0 0 200 200" enable-background="new 0 0 200 200" xml:space="preserve">
<path d="M150.222,146.726l3.282,4.264c-11.019,5.141-30.561,13.173-47.849,14.673v-71.79h24.613l3.812-9.417h-28.425V60.033
	c6.311-2.31,10.824-8.351,10.824-15.462c0-9.101-7.379-16.479-16.479-16.479S83.521,35.47,83.521,44.571
	c0,7.111,4.513,13.152,10.824,15.462v24.422H65.92l3.812,9.417h24.613v71.79c-17.288-1.5-36.83-9.532-47.849-14.673l3.283-4.264
	l-26.688-7.66l14.231,23.841l3.641-4.729c13.963,10.077,39.511,16.601,58.821,16.695l0,0.005c0.072,0,0.145-0.002,0.216-0.003
	c0.071,0.001,0.144,0.003,0.216,0.003v-0.005c19.31-0.095,44.858-6.618,58.82-16.695l3.642,4.729l14.231-23.841L150.222,146.726z
	 M99.984,170.061h0.032L100,170.393L99.984,170.061z"/>
</svg>
