<?xml version="1.0" encoding="utf-8"?>
<!-- Generator: Adobe Illustrator 15.0.0, SVG Export Plug-In . SVG Version: 6.00 Build 0)  -->
<!DOCTYPE svg PUBLIC "-//W3C//DTD SVG 1.1//EN" "http://www.w3.org/Graphics/SVG/1.1/DTD/svg11.dtd">
<svg version="1.1" id="Layer_1" xmlns="http://www.w3.org/2000/svg" xmlns:xlink="http://www.w3.org/1999/xlink" x="0px" y="0px"
	 width="200px" height="200px" viewBox="0 0 200 200" enable-background="new 0 0 200 200" xml:space="preserve">
<path d="M97.651,130.517c-0.22,2.126-4.965,6.266-9.63,3.21c-4.665-3.055-13.927-5.962-13.927-5.962s11.521-0.162,15.541,0.048
	C93.655,128.021,97.873,128.389,97.651,130.517z"/>
<path d="M92.196,120.666c-0.087,2.136-4.565,6.564-9.411,3.806c-4.847-2.759-14.273-5.08-14.273-5.08S80,118.51,84.025,118.468
	S92.284,118.529,92.196,120.666z"/>
<path d="M86.71,110.769c-0.216,2.129-4.954,6.277-9.625,3.229c-4.671-3.046-13.938-5.935-13.938-5.935s11.521-0.185,15.541,0.019
	C82.708,108.281,86.927,108.641,86.71,110.769z"/>
<path d="M80.981,100.892c-0.187,2.13-4.866,6.345-9.578,3.365c-4.714-2.98-14.022-5.739-14.022-5.739s11.517-0.346,15.54-0.202
	C76.944,98.461,81.167,98.761,80.981,100.892z"/>
<path d="M75.484,92.677c-0.333,2.113-5.29,5.997-9.787,2.699c-4.498-3.296-13.594-6.688-13.594-6.688s11.513,0.446,15.517,0.867
	C71.623,89.975,75.816,90.565,75.484,92.677z"/>
<path d="M66.448,82.073c-0.454,2.089-5.627,5.682-9.926,2.129c-4.3-3.551-13.186-7.46-13.186-7.46s11.468,1.108,15.44,1.759
	C62.749,79.151,66.901,79.982,66.448,82.073z"/>
<path d="M98.613,130.518c2.015,0.717,7.795-1.782,7.046-7.309c-0.748-5.525,0.617-15.137,0.617-15.137s-5.108,10.327-6.65,14.046
	C98.083,125.836,96.599,129.801,98.613,130.518z"/>
<path d="M92.882,120.52c1.973,0.825,7.879-1.359,7.429-6.918c-0.449-5.559,1.433-15.082,1.433-15.082s-5.658,10.037-7.398,13.666
	C92.605,115.815,90.909,119.694,92.882,120.52z"/>
<path d="M87.397,110.74c2.026,0.685,7.765-1.905,6.929-7.42c-0.835-5.513,0.379-15.145,0.379-15.145s-4.945,10.407-6.428,14.149
	C86.793,106.066,85.372,110.054,87.397,110.74z"/>
<path d="M81.62,100.71c2.1,0.404,7.438-2.935,5.865-8.286c-1.571-5.351-1.668-15.058-1.668-15.058s-3.496,10.979-4.46,14.887
	C80.391,96.161,79.521,100.304,81.62,100.71z"/>
<path d="M76.27,91.903c2.136-0.109,6.52-4.63,3.714-9.449c-2.806-4.82-5.22-14.223-5.22-14.223s-0.77,11.496-0.772,15.521
	C73.989,87.777,74.134,92.009,76.27,91.903z"/>
<path d="M67.446,81.383c2.073-0.523,5.489-5.814,1.795-9.991c-3.693-4.179-7.899-12.927-7.899-12.927s1.493,11.424,2.278,15.372
	C64.402,77.785,65.372,81.907,67.446,81.383z"/>
<path d="M124.28,114.437c0.932,2.38,7.724,5.63,12.118,0.617c4.398-5.009,14.137-11.319,14.137-11.319s-13.322,3.496-17.885,5.024
	C128.085,110.284,123.345,112.056,124.28,114.437z"/>
<path d="M127.414,101.343c0.785,2.435,7.357,6.104,12.057,1.375c4.704-4.725,14.817-10.416,14.817-10.416
	s-13.515,2.659-18.165,3.897C131.473,97.436,126.629,98.91,127.414,101.343z"/>
<path d="M130.567,88.189c0.932,2.383,7.714,5.646,12.12,0.642c4.405-5.002,14.158-11.295,14.158-11.295s-13.329,3.473-17.896,4.991
	C134.383,84.044,129.638,85.808,130.567,88.189z"/>
<path d="M134.01,74.979c0.896,2.395,7.633,5.754,12.108,0.813c4.478-4.941,14.317-11.094,14.317-11.094s-13.377,3.283-17.966,4.737
	C137.884,70.889,133.114,72.585,134.01,74.979z"/>
<path d="M137.714,63.76c1.061,2.327,8.011,5.215,12.138-0.022c4.126-5.236,13.521-12.051,13.521-12.051s-13.12,4.195-17.597,5.96
	C141.298,59.412,136.655,61.433,137.714,63.76z"/>
<path d="M144.733,48.653c1.191,2.262,8.299,4.746,12.114-0.721c3.818-5.465,12.804-12.811,12.804-12.811s-12.855,4.944-17.224,6.964
	C148.062,44.106,143.542,46.39,144.733,48.653z"/>
<path fill="none" stroke="#000000" stroke-linecap="round" stroke-miterlimit="10" d="M171.56,8c0,0-26.925,29.382-36.272,61.546
	c-9.35,32.164-14.95,62.347-14.95,62.347c-3.924,21.391-4.817,57.854-4.817,57.854s-1.47-24.408-10.785-46.043
	c0,0-11.266-23.073-25.998-46.906C64.003,72.966,35.73,55.309,35.73,55.309"/>
<path d="M123.172,114.745c-2.091,1.472-9.55,0.44-10.453-6.166c-0.906-6.605-5.553-17.239-5.553-17.239s9.188,10.263,12.153,14.052
	C122.286,109.182,125.264,113.275,123.172,114.745z"/>
<path d="M126.577,101.395c-2.009,1.582-9.511,0.954-10.771-5.593c-1.26-6.546-6.474-16.916-6.474-16.916s9.728,9.754,12.893,13.377
	C125.392,95.888,128.587,99.814,126.577,101.395z"/>
<path d="M129.769,88.376c-2.115,1.437-9.555,0.289-10.354-6.331c-0.802-6.618-5.28-17.325-5.28-17.325s9.023,10.408,11.929,14.244
	C128.969,82.798,131.882,86.937,129.769,88.376z"/>
<path d="M133.216,74.974c-2.291,1.139-9.507-1.002-9.407-7.669c0.1-6.666-2.895-17.878-2.895-17.878s7.539,11.528,9.899,15.722
	C133.176,69.341,135.503,73.835,133.216,74.974z"/>
<path d="M136.563,63.117c-2.495,0.558-8.991-3.248-7.3-9.696c1.691-6.449,1.465-18.053,1.465-18.053s4.562,12.997,5.853,17.632
	C137.871,57.637,139.058,62.558,136.563,63.117z"/>
<path d="M143.363,48.179c-2.556,0.06-8.182-4.942-5.263-10.936c2.918-5.994,4.965-17.417,4.965-17.417s1.935,13.638,2.293,18.437
	C145.719,43.06,145.919,48.119,143.363,48.179z"/>
</svg>
