<?xml version="1.0" encoding="utf-8"?>
<!-- Generator: Adobe Illustrator 15.0.0, SVG Export Plug-In . SVG Version: 6.00 Build 0)  -->
<!DOCTYPE svg PUBLIC "-//W3C//DTD SVG 1.1//EN" "http://www.w3.org/Graphics/SVG/1.1/DTD/svg11.dtd">
<svg version="1.1" id="Layer_1" xmlns="http://www.w3.org/2000/svg" xmlns:xlink="http://www.w3.org/1999/xlink" x="0px" y="0px"
	 width="200px" height="200px" viewBox="0 0 200 200" enable-background="new 0 0 200 200" xml:space="preserve">
<path d="M181.984,40.159c-0.506-0.75-1.402-1.116-2.3-0.93l-5.78,1.234l-6.681-5.438l1.026-1.507
	c0.51-0.747,0.512-1.728,0.008-2.479c-0.505-0.751-1.422-1.119-2.299-0.93L88.58,46.629c-0.555,0.119-1.045,0.448-1.365,0.918
	L15.667,152.589c-0.149,0.216-0.242,0.456-0.302,0.702l-0.013-0.002c-0.804,3.149-0.17,6.097,1.778,8.298
	c2.203,2.487,5.87,3.796,10.629,3.796c1.24,0,2.554-0.089,3.935-0.267l72.584-16.006c0.377,0.048,0.755,0.119,1.122,0.119
	c1.78,0,3.448-0.564,4.891-1.64l0.134,0.09l0.263-0.384c0.064-0.055,0.135-0.091,0.198-0.147l-0.056-0.063l71.146-104.448
	C182.486,41.891,182.487,40.91,181.984,40.159z M107.696,143.825l-3.601,0.796c-1.727-0.454-3.226-1.632-3.665-2.004
	c-2.375-2.007-3.299-4.379-2.867-5.068l-0.121-0.075l67.281-98.778l9.381,7.639L107.696,143.825z"/>
</svg>
