<?xml version="1.0" encoding="utf-8"?>
<!-- Generator: Adobe Illustrator 15.0.0, SVG Export Plug-In . SVG Version: 6.00 Build 0)  -->
<!DOCTYPE svg PUBLIC "-//W3C//DTD SVG 1.1//EN" "http://www.w3.org/Graphics/SVG/1.1/DTD/svg11.dtd">
<svg version="1.1" id="Layer_1" xmlns="http://www.w3.org/2000/svg" xmlns:xlink="http://www.w3.org/1999/xlink" x="0px" y="0px"
	 width="200px" height="200px" viewBox="0 0 200 200" enable-background="new 0 0 200 200" xml:space="preserve">
<path d="M154.829,92.851V63.503c0-1.149-0.932-2.081-2.081-2.081h-16.302c-1.148,0-2.08,0.932-2.08,2.081V81L154.829,92.851z"/>
<path d="M174.763,108.73l-73.72-42.692c-0.645-0.374-1.441-0.374-2.085,0l-73.72,42.692c-0.995,0.576-1.334,1.849-0.758,2.844
	c0.576,0.995,1.85,1.334,2.844,0.759l3.11-1.803h0.553v77.224c0,1.149,0.932,2.081,2.081,2.081h54.418v-41.594
	c0-1.149,0.932-2.081,2.081-2.081h20.868c1.15,0,2.082,0.932,2.082,2.081v41.594h54.418c1.149,0,2.081-0.932,2.081-2.081V110.53
	h0.553l3.11,1.803c0.328,0.189,0.687,0.28,1.04,0.28c0.719,0,1.418-0.373,1.804-1.039
	C176.097,110.579,175.758,109.307,174.763,108.73z"/>
<path opacity="0.2" d="M160.563,21.069c0.717-7.507-4.789-14.174-12.296-14.892c-7.508-0.716-14.176,4.789-14.893,12.296
	c-0.203,2.14,0.112,4.206,0.821,6.091c-1.858,1.996-3.004,4.664-3.004,7.605c0,4.161,2.28,7.784,5.652,9.708
	c0.325,1.905,1.171,3.629,2.391,5.023c-0.588,1.042-0.927,2.242-0.927,3.523c0,3.969,3.217,7.187,7.188,7.187
	c3.97,0,7.187-3.218,7.187-7.187c0-0.558-0.069-1.099-0.189-1.62c2.858-1.827,4.758-5.02,4.758-8.663
	c0-3.179-1.443-6.02-3.709-7.905c0-0.022,0.003-0.043,0.003-0.065c0-0.142-0.017-0.279-0.021-0.42
	C157.356,29.648,160.116,25.748,160.563,21.069z"/>
</svg>
