<?xml version="1.0" encoding="utf-8"?>
<!-- Generator: Adobe Illustrator 15.0.0, SVG Export Plug-In . SVG Version: 6.00 Build 0)  -->
<!DOCTYPE svg PUBLIC "-//W3C//DTD SVG 1.1//EN" "http://www.w3.org/Graphics/SVG/1.1/DTD/svg11.dtd">
<svg version="1.1" xmlns="http://www.w3.org/2000/svg" xmlns:xlink="http://www.w3.org/1999/xlink" x="0px" y="0px" width="200px"
	 height="200px" viewBox="0 0 200 200" enable-background="new 0 0 200 200" xml:space="preserve">
<g id="Layer_1">
	<path opacity="0.15" d="M50.685,183.001c0,0-37.219-42.152-30.941-67.04s32.735-47.31,23.318-63.901S7.636,24.257,7.636,24.257
		s60.762,7.623,65.246,39.462s-9.642,49.104,3.363,62.332s48.13,38.115,48.206,56.95c0,0-3.701-47.24-6.201-69.99
		s16-49.25,26.5-62.75s-56-44.75-56-44.75s86,17,79.25,52s-10.75,50.5,2,65.25s19.25,60.24,19.25,60.24"/>
</g>
<g id="Layer_2">
	<polygon points="16.016,183.001 24.312,144.884 27.227,149.593 35.299,149.816 35.299,160.354 52.114,183.001 	"/>
	<polygon points="45.5,179.261 59,142.261 60.75,163.942 78.25,163.942 93.5,176.261 110.25,183.001 148.5,177.011 172,178.511 
		189.25,183.001 49,183.001 	"/>
	<path d="M16.016,183.001l29.484,5.333c0,0,52.5,1,54.5,1.333s47.667-4.333,50-3.333s39.25-3.333,39.25-3.333L90.667,183
		L16.016,183.001z"/>
	<polygon points="148.5,177.011 148.5,132 148.5,109 142.333,109 142.333,117.334 131.667,118 130.333,123.334 130.333,134.667 
		130.333,183 	"/>
	<polygon points="99.014,188.184 81.094,146.895 71.937,125.796 77.594,123.341 80.912,130.985 90.962,127.35 94.309,131.712 
		98.822,142.107 118.064,186.444 	"/>
	<path d="M165.75,169.5l7-6.869L180.5,172c0,0,14.5,0.5,14,1.25s-10.25,10-10.25,10H170.5L157.75,183v-12.25l4.25-8.119
		L165.75,169.5z"/>
</g>
</svg>
